#!OML:ASF H:\Terrain\Patient Classification 1\Terrain2\Thursday\justin.ASF
:FULLY-SPECIFIED
:DEGREES
1050
root 31.0671 17.9815 10.4614 -265.273 -84.89 -95.0621
lowerback 9.33232 0.692323 5.07354
upperback 3.13672 1.29788 3.7652
thorax -1.93889 0.568565 0.912981
lowerneck -16.1533 -0.855615 -8.31409
upperneck 34.5718 -0.371962 2.05436
head 14.6889 -1.32916 2.14983
rclavicle -6.26172e-015 -6.36111e-015
rhumerus -29.6104 -2.03291 -81.5126
rradius 32.169
rwrist -10.0911
rhand -20.8521 13.7821
rfingers 7.12502
rthumb 5.51713 -16.1261
lclavicle -6.26172e-015 -6.36111e-015
lhumerus -33.4445 10.0181 84.3104
lradius 32.3132
lwrist -4.82039
lhand -17.2243 17.7698
lfingers 7.12502
lthumb 9.01895 47.557
rfemur -1.48866 -5.70818 29.6155
rtibia 22.0442
rfoot -16.6573 1.76764
rtoes 21.5754
lfemur -36.9741 6.83505 -8.47151
ltibia 74.6942
lfoot 12.9971 -16.3442
ltoes 28.1824
1051
root 31.0527 17.9926 10.446 -262.781 -84.9309 -97.6674
lowerback 9.45717 0.828154 5.10154
upperback 3.19737 1.48377 3.69132
thorax -1.93805 0.66149 0.7996
lowerneck -15.8111 -0.875126 -8.26756
upperneck 34.4391 -0.480646 2.1245
head 14.5551 -1.3561 2.14996
rclavicle -1.67973e-014 -3.49861e-014
rhumerus -29.5769 -1.96663 -81.3487
rradius 31.7666
rwrist -9.75689
rhand -20.3267 13.5133
rfingers 7.12502
rthumb 6.02443 -16.381
lclavicle -1.67973e-014 -3.49861e-014
lhumerus -33.5601 9.1277 84.5679
lradius 32.8965
lwrist -3.8952
lhand -17.3094 17.2452
lfingers 7.12502
lthumb 8.93681 47.0359
rfemur -1.00005 -5.54905 29.6053
rtibia 21.3412
rfoot -16.8184 0.986431
rtoes 17.7058
lfemur -38.7809 7.78696 -8.71575
ltibia 78.137
lfoot 10.1914 -15.4623
ltoes 18.2232
1052
root 31.0352 17.9952 10.4317 -260.039 -85.0103 -100.467
lowerback 9.48629 0.954124 5.05082
upperback 3.27388 1.64139 3.63579
thorax -1.87094 0.741539 0.753561
lowerneck -15.6017 -0.874819 -7.95231
upperneck 34.4094 -0.530944 1.90312
head 14.4948 -1.36775 1.99404
rclavicle -1.04362e-014 -2.38542e-014
rhumerus -29.3613 -2.40937 -80.9451
rradius 31.0507
rwrist -8.45834
rhand -18.8653 13.9899
rfingers 7.12502
rthumb 7.43519 -15.8595
lclavicle -1.04362e-014 -2.38542e-014
lhumerus -33.6445 8.99739 84.644
lradius 33.3981
lwrist -3.67914
lhand -18.162 17.1321
lfingers 7.12502
lthumb 8.11398 46.9563
rfemur -0.455724 -5.39983 29.5248
rtibia 20.5235
rfoot -16.6262 0.811165
rtoes 16.3249
lfemur -40.5993 8.73285 -9.03707
ltibia 81.5878
lfoot 7.30762 -14.7436
ltoes 7.93454
1053
root 31.012 18.0118 10.4118 -257.512 -84.8952 -103.12
lowerback 9.55433 1.08946 5.22218
upperback 3.4152 1.82606 3.57804
thorax -1.74892 0.835498 0.578926
lowerneck -15.7021 -0.846419 -7.56902
upperneck 34.6327 -0.589986 1.83494
head 14.6197 -1.36118 1.8913
rclavicle -2.46493e-014 -2.06736e-014
rhumerus -29.0806 -3.10465 -80.6539
rradius 30.3234
rwrist -6.92914
rhand -17.7571 14.5186
rfingers 7.12502
rthumb 8.50471 -15.2902
lclavicle -2.46493e-014 -2.06736e-014
lhumerus -33.5718 8.79673 84.7395
lradius 33.9403
lwrist -2.91503
lhand -20.4452 17.9093
lfingers 7.12502
lthumb 5.91002 47.8069
rfemur 0.243309 -5.25487 29.6592
rtibia 19.5662
rfoot -16.0956 0.924879
rtoes 16.9948
lfemur -42.3224 9.70324 -8.92836
ltibia 85.0972
lfoot 5.37912 -14.3492
ltoes 5.09758
1054
root 30.9889 18.0288 10.3813 -255.143 -84.5512 -105.778
lowerback 9.8217 1.23375 5.44632
upperback 3.57812 2.0383 3.62201
thorax -1.71287 0.938974 0.473835
lowerneck -15.7058 -1.01056 -8.12029
upperneck 34.708 -0.83072 2.30152
head 14.6764 -1.47499 2.14171
rclavicle 3.94588e-014 3.57812e-014
rhumerus -28.9145 -3.09991 -80.6601
rradius 29.8678
rwrist -6.40247
rhand -18.0045 14.1939
rfingers 7.12502
rthumb 8.26604 -15.6244
lclavicle 3.94588e-014 3.57812e-014
lhumerus -33.5986 8.51829 84.8585
lradius 34.6151
lwrist -1.82919
lhand -22.0752 18.6256
lfingers 7.12502
lthumb 4.33616 48.5612
rfemur 1.29777 -4.90212 30.0817
rtibia 18.2342
rfoot -15.3558 0.758673
rtoes 17.9289
lfemur -43.934 10.8477 -8.50188
ltibia 88.6055
lfoot 3.09284 -13.8484
ltoes 8.28798
1055
root 30.963 18.0418 10.3534 -253.885 -84.204 -107.326
lowerback 10.0836 1.33999 5.54572
upperback 3.69454 2.19332 3.80179
thorax -1.7331 1.01041 0.584089
lowerneck -15.6121 -1.07878 -8.40516
upperneck 34.7659 -0.903759 2.42143
head 14.691 -1.53169 2.2293
rclavicle 3.97569e-016 -5.56597e-015
rhumerus -28.8262 -2.639 -80.6108
rradius 29.4829
rwrist -6.46141
rhand -18.792 13.633
rfingers 7.12502
rthumb 7.50595 -16.2138
lclavicle 3.97569e-016 -5.56597e-015
lhumerus -33.833 8.46303 84.9824
lradius 35.2921
lwrist -1.3127
lhand -21.8258 18.6633
lfingers 7.12502
lthumb 4.57702 48.5938
rfemur 2.49986 -4.6373 30.4886
rtibia 16.6593
rfoot -14.6188 0.555044
rtoes 17.1365
lfemur -45.6031 11.8615 -8.14946
ltibia 92.0837
lfoot -0.226513 -11.9949
ltoes 4.04274
1056
root 30.934 18.0934 10.3388 -252.128 -84.1402 -109.23
lowerback 10.2321 1.46918 5.61568
upperback 3.75972 2.3745 3.84969
thorax -1.73999 1.09848 0.57227
lowerneck -15.6274 -1.15512 -8.60096
upperneck 34.9714 -0.980808 2.45126
head 14.7998 -1.59682 2.2651
rclavicle 1.39149e-014 -1.43125e-014
rhumerus -28.7797 -2.5922 -80.4043
rradius 29.097
rwrist -6.42251
rhand -19.063 13.6016
rfingers 7.12502
rthumb 7.24433 -16.2544
lclavicle 1.39149e-014 -1.43125e-014
lhumerus -34.0182 8.61125 84.977
lradius 35.7157
lwrist -1.77713
lhand -20.549 18.2285
lfingers 7.12502
lthumb 5.80975 48.1289
rfemur 3.66203 -4.50325 30.5078
rtibia 14.8764
rfoot -13.7829 0.525644
rtoes 15.8587
lfemur -47.2872 12.7372 -8.27696
ltibia 95.3289
lfoot -0.645463 -12.5863
ltoes 11.9833
1057
root 30.913 18.1201 10.335 -251.592 -84.1885 -109.792
lowerback 10.3245 1.5176 5.87853
upperback 3.78234 2.4674 3.74017
thorax -1.74679 1.14652 0.300198
lowerneck -15.5221 -1.22661 -8.6577
upperneck 35.0312 -1.09544 2.46629
head 14.8134 -1.65523 2.26233
rclavicle -2.60408e-014 7.15625e-015
rhumerus -28.7031 -2.66117 -80.3114
rradius 28.789
rwrist -6.44227
rhand -18.9273 13.6423
rfingers 7.12502
rthumb 7.37537 -16.2091
lclavicle -2.60408e-014 7.15625e-015
lhumerus -34.2022 8.8489 84.7288
lradius 35.9808
lwrist -2.61458
lhand -19.3185 17.3821
lfingers 7.12502
lthumb 6.9977 47.2464
rfemur 4.49219 -4.5388 30.4492
rtibia 13.3916
rfoot -13.0199 0.531235
rtoes 15.1766
lfemur -49.3984 13.4469 -8.62476
ltibia 98.6113
lfoot -2.08356 -11.8991
ltoes 10.7376
1058
root 30.8898 18.1283 10.3252 -253.382 -84.1023 -108.149
lowerback 10.4895 1.41599 6.15516
upperback 3.85524 2.36234 3.76681
thorax -1.75284 1.09279 0.183049
lowerneck -15.4539 -1.18888 -8.52687
upperneck 35.0734 -1.04602 2.32522
head 14.8121 -1.64015 2.18881
rclavicle -2.5842e-015 1.90833e-014
rhumerus -28.3808 -2.40873 -80.2844
rradius 28.2825
rwrist -6.46695
rhand -18.7847 13.4217
rfingers 7.12502
rthumb 7.51299 -16.4248
lclavicle -2.5842e-015 1.90833e-014
lhumerus -34.0703 14.1827 83.0047
lradius 35.3965
lwrist -7.12534
lhand -18.021 15.5798
lfingers 7.12502
lthumb 8.25009 45.3987
rfemur 5.5561 -4.66061 30.6366
rtibia 11.661
rfoot -12.2042 0.433502
rtoes 14.9092
lfemur -51.5149 14.1591 -8.68422
ltibia 101.8
lfoot -3.49215 -11.5458
ltoes 8.71167
1059
root 30.8654 18.1106 10.3161 -253.779 -84.0882 -107.944
lowerback 10.6851 1.36584 6.20902
upperback 3.93114 2.30756 3.83857
thorax -1.7831 1.0621 0.230211
lowerneck -15.3826 -1.11665 -8.40852
upperneck 35.1629 -0.963768 2.2333
head 14.8297 -1.60872 2.14392
rclavicle 3.06128e-014 6.12257e-014
rhumerus -28.0969 -2.26853 -80.2132
rradius 27.6958
rwrist -6.1594
rhand -19.0392 13.1469
rfingers 7.12502
rthumb 7.26727 -16.7083
lclavicle 3.06128e-014 6.12257e-014
lhumerus -34.8376 9.42401 84.5737
lradius 37.3512
lwrist -1.55245
lhand -18.5678 16.8369
lfingers 7.12502
lthumb 7.72229 46.6759
rfemur 6.42508 -4.92637 30.6256
rtibia 10.4871
rfoot -11.6795 0.662857
rtoes 15.4102
lfemur -53.6478 15.0422 -8.8599
ltibia 105.016
lfoot -4.97787 -11.8765
ltoes 6.92853
1060
root 30.8328 18.1581 10.3008 -252.268 -84.3176 -109.622
lowerback 10.8526 1.40318 5.93393
upperback 3.97151 2.34034 3.84885
thorax -1.84457 1.07542 0.386013
lowerneck -15.3306 -1.1666 -8.95774
upperneck 35.209 -0.902933 2.31045
head 14.8445 -1.64979 2.28239
rclavicle -1.27222e-014 2.14687e-014
rhumerus -28.2212 -1.60169 -80.2708
rradius 27.7363
rwrist -6.50227
rhand -19.3683 12.5992
rfingers 7.12502
rthumb 6.94963 -17.2667
lclavicle -1.27222e-014 2.14687e-014
lhumerus -35.5302 7.72511 85.1525
lradius 38.7097
lwrist 0.660323
lhand -18.0144 17.6968
lfingers 7.12502
lthumb 8.2564 47.5155
rfemur 7.46438 -4.91227 30.3175
rtibia 9.07062
rfoot -10.9713 0.687461
rtoes 14.9906
lfemur -55.2289 15.7714 -9.29755
ltibia 107.673
lfoot -6.16179 -12.1703
ltoes 8.13961
1061
root 30.7972 18.1814 10.2918 -249.246 -84.6391 -112.941
lowerback 11.1066 1.47576 5.58925
upperback 4.09244 2.41026 3.70128
thorax -1.86469 1.11015 0.410857
lowerneck -15.4329 -1.19317 -9.10927
upperneck 35.436 -0.940787 2.42636
head 14.9805 -1.68189 2.35368
rclavicle -2.90226e-014 -3.10104e-014
rhumerus -28.3545 -1.28253 -80.4099
rradius 27.9465
rwrist -6.9593
rhand -19.352 12.1746
rfingers 7.12502
rthumb 6.96541 -17.6908
lclavicle -2.90226e-014 -3.10104e-014
lhumerus -35.7533 7.64779 85.0555
lradius 38.985
lwrist 1.19456
lhand -17.116 17.9081
lfingers 7.12502
lthumb 9.12338 47.6908
rfemur 8.31117 -4.82904 29.9361
rtibia 8.30427
rfoot -10.6371 0.187997
rtoes 10.2086
lfemur -56.7163 16.4824 -9.77956
ltibia 110.362
lfoot -6.7503 -13.3052
ltoes 13.459
1062
root 30.7619 18.184 10.2841 -246.943 -84.4407 -115.48
lowerback 11.2934 1.52968 5.84249
upperback 4.25128 2.50219 3.56717
thorax -1.77877 1.15869 0.117394
lowerneck -15.585 -1.18015 -8.87661
upperneck 35.5213 -1.00431 2.4921
head 15.0565 -1.67028 2.33158
rclavicle -2.28602e-014 1.59028e-015
rhumerus -28.2372 -1.98708 -80.5033
rradius 27.7824
rwrist -6.57093
rhand -19.4926 12.1303
rfingers 7.12502
rthumb 6.8296 -17.7396
lclavicle -2.28602e-014 1.59028e-015
lhumerus -35.7132 7.49614 84.7861
lradius 38.8857
lwrist 1.62694
lhand -16.6877 17.6792
lfingers 7.12502
lthumb 9.53665 47.4434
rfemur 9.36724 -4.62287 29.9663
rtibia 7.05218
rfoot -10.1499 0.58621
rtoes 13.3491
lfemur -58.4219 17.5919 -9.74078
ltibia 113.001
lfoot -7.17239 -16.1313
ltoes 17.4169
